<svg width="33" height="33" viewBox="0 0 33 33" fill="none" xmlns="http://www.w3.org/2000/svg">
<g clip-path="url(#clip0_3_59)">
<path fill-rule="evenodd" clip-rule="evenodd" d="M16.398 0.110001C7.56402 0.110001 0.400024 7.274 0.400024 16.11C0.400024 23.178 4.98403 29.176 11.342 31.292C12.142 31.438 12.434 30.944 12.434 30.52C12.434 30.14 12.42 29.134 12.412 27.798C7.96202 28.764 7.02202 25.654 7.02202 25.654C6.29402 23.806 5.24602 23.314 5.24602 23.314C3.79402 22.322 5.35602 22.342 5.35602 22.342C6.96202 22.456 7.80602 23.99 7.80602 23.99C9.23402 26.436 11.55 25.73 12.462 25.32C12.608 24.286 13.02 23.58 13.478 23.182C9.92602 22.778 6.19002 21.406 6.19002 15.274C6.19002 13.528 6.81402 12.1 7.83602 10.98C7.67402 10.576 7.12402 8.948 7.99602 6.746C7.99602 6.746 9.34002 6.316 12.396 8.386C13.672 8.032 15.04 7.854 16.4 7.848C17.758 7.854 19.128 8.032 20.406 8.386C23.46 6.316 24.802 6.746 24.802 6.746C25.674 8.948 25.126 10.576 24.962 10.98C25.988 12.098 26.606 13.526 26.606 15.274C26.606 21.42 22.866 22.774 19.3 23.17C19.874 23.664 20.386 24.64 20.386 26.132C20.386 28.27 20.366 29.996 20.366 30.522C20.366 30.95 20.654 31.448 21.466 31.292C27.82 29.17 32.4 23.178 32.4 16.11C32.4 7.274 25.236 0.110001 16.398 0.110001Z" fill="#15857A"/>
</g>
<defs>
<clipPath id="clip0_3_59">
<rect width="32" height="32" fill="white" transform="translate(0.400024 0.110001)"/>
</clipPath>
</defs>
</svg>
