<svg width="32" height="32" viewBox="0 0 32 32" fill="none" xmlns="http://www.w3.org/2000/svg">
<rect x="1.5" y="1.5" width="29" height="29" rx="4.9" stroke="#15857A" stroke-width="3"/>
<rect x="6" y="6" width="20" height="20" rx="3" stroke="#15857A" stroke-width="2"/>
<path d="M23 2H9C5.13401 2 2 5.13401 2 9V23C2 26.866 5.13401 30 9 30H23C26.866 30 30 26.866 30 23V9C30 5.13401 26.866 2 23 2Z" stroke="#15857A" stroke-width="2.7"/>
<circle cx="16.3" cy="16.3" r="4.5" fill="#15857A"/>
<circle cx="22.72" cy="8.64" r="2.1" stroke="#15857A"/>
<circle cx="16.25" cy="16.25" r="7.25" stroke="#15857A" stroke-width="2"/>
<rect x="7" y="7" width="3" height="18" fill="#15857A"/>
<rect x="9" y="23" width="16" height="2" fill="#15857A"/>
<rect x="23" y="11" width="3" height="13" fill="#15857A"/>
<rect x="9" y="6" width="12" height="3" fill="#15857A"/>
<rect x="8" y="8" width="4.5" height="3" fill="#15857A"/>
<rect x="22" y="11" width="4" height="2" fill="#15857A"/>
<path d="M24 10L25.5 9.5V11.5H23.5L24 10Z" fill="#15857A"/>
<path d="M21.5 21.5L23 21V23H21L21.5 21.5Z" fill="#15857A"/>
<path d="M9.5 21.5L11 21L12 23H10L9.5 21.5Z" fill="#15857A"/>
</svg>
