<svg width="33" height="34" viewBox="0 0 33 34" fill="none" xmlns="http://www.w3.org/2000/svg">
<path d="M32.586 7.00111V27.0515C32.586 28.6974 31.9875 30.1189 30.7905 31.3159C29.5934 32.513 28.172 33.1115 26.526 33.1115H6.55048C4.90455 33.1115 3.48307 32.513 2.28603 31.3159C1.089 30.1189 0.490479 28.6974 0.490479 27.0515V7.00111C0.490479 5.35518 1.089 3.9337 2.28603 2.73667C3.48307 1.53963 4.90455 0.941111 6.55048 0.941111H26.526C28.172 0.941111 29.5934 1.53963 30.7905 2.73667C31.9875 3.9337 32.586 5.35518 32.586 7.00111ZM10.5905 8.87148C10.5905 8.12333 10.2912 7.52481 9.84233 7.07593C9.31863 6.55222 8.72011 6.32778 7.89715 6.32778C7.07418 6.32778 6.40085 6.55222 5.95196 7.00111C5.42826 7.45 5.20381 8.04852 5.20381 8.79667C5.20381 9.47 5.42826 10.0685 5.95196 10.5922C6.47566 11.0411 7.07418 11.3404 7.89715 11.3404C8.72011 11.3404 9.39344 11.1159 9.91715 10.5922C10.366 10.1433 10.5905 9.54481 10.5905 8.87148ZM5.42826 27.7996H10.2164V13.2856H5.42826V27.7996ZM22.7853 27.7996H27.5734V19.4952C27.5734 17.3256 27.0497 15.7544 26.0771 14.6322C25.0297 13.51 23.6831 12.9863 22.0371 12.9863C20.1668 12.9863 18.6705 13.8093 17.6979 15.4552H17.7727V13.3604H12.9846C13.0594 14.2581 13.0594 19.1211 12.9846 27.8744H17.7727V19.7196C17.7727 19.1959 17.8475 18.8219 17.9223 18.5226C18.1468 17.9989 18.446 17.6248 18.8949 17.2507C19.3438 16.8767 19.7927 16.727 20.466 16.727C22.112 16.727 22.8601 17.8493 22.8601 20.0189V27.7996H22.7853Z" fill="#15857A"/>
</svg>
